<svg width="1024" height="768" viewBox="0 0 1024 768" fill="none" xmlns="http://www.w3.org/2000/svg">
<rect width="1024" height="768" fill="#B05F31"/>
<rect y="362" width="1024" height="406" fill="#0E24ED"/>
<path d="M253.7 469.2H230.66V443.984H253.7V469.2ZM270.34 430.672H214.148V482.64H270.34V430.672ZM305.028 507.856V494.672H226.052V507.856H255.876C253.444 516.816 242.18 525.392 220.932 527.824L227.076 540.624C245.892 538.192 258.948 530.768 265.604 520.912C272.388 530.768 285.316 538.448 304.004 540.752L310.148 527.952C289.156 525.392 277.892 516.56 275.204 507.856H305.028ZM303.492 448.72V423.12H286.596V489.04H303.492V462.544H319.108V448.72H303.492ZM337.786 475.472C359.418 474.064 374.266 468.176 381.562 459.088C388.986 468.176 403.706 474.064 425.338 475.472L430.33 462.8C404.858 461.392 393.465 454.224 391.418 446.416H424.698V433.36H390.01V423.12H373.114V433.36H338.682V446.416H371.834C369.786 454.224 358.394 461.392 332.922 462.8L337.786 475.472ZM405.626 526.416H357.37V515.28H405.626V526.416ZM434.938 493.008V479.696H328.442V493.008H373.114V501.968H340.858V539.6H422.266V501.968H390.01V493.008H434.938ZM527.856 450.768V459.472H506.864V450.768H527.856ZM490.352 467.28H467.952V454.48H490.352V467.28ZM506.864 472.272H527.856V483.664H544.752V423.248H527.856V437.968H506.864V427.984H490.352V441.808H467.952V427.984H451.184V480.464H506.864V472.272ZM483.824 526.544V519.632H544.752V488.144H466.928V501.2H527.984V507.472H467.184V539.6H548.08V526.544H483.824ZM672.105 462.16H626.153V451.536H672.105V462.16ZM688.873 426.832H672.105V438.864H626.153V426.832H609.385V475.344H688.873V426.832ZM625.001 506.576H608.105V538.96H690.793V525.52H625.001V506.576ZM595.689 483.536V496.848H642.153V515.408H659.049V496.848H702.569V483.536H595.689ZM783.967 476.496C765.407 470.352 757.599 456.016 757.599 441.296V429.136H740.447V440.272C740.447 456.272 732.383 471.888 712.799 478.288L721.631 491.6C734.943 486.992 744.031 477.904 749.151 466.512C754.143 476.88 762.591 485.2 775.135 489.552L783.967 476.496ZM731.743 511.952H795.231V541.136H812.127V498.64H731.743V511.952ZM795.231 423.12V445.136H773.727V458.832H795.231V493.264H812.127V423.12H795.231ZM154.183 661.568H217.543V691.136H234.439V648.256H154.183V661.568ZM198.855 614.592C199.239 612.544 199.495 610.496 199.495 608.448C199.495 606.272 199.239 604.352 198.855 602.432H217.543V614.592H198.855ZM168.391 623.296C159.815 623.296 153.415 617.792 153.415 608.448C153.415 599.232 159.815 593.728 168.391 593.728C177.095 593.728 183.495 599.232 183.495 608.448C183.495 617.792 177.095 623.296 168.391 623.296ZM217.543 573.12V588.992H192.071C186.439 582.976 177.991 579.264 168.391 579.264C150.983 579.264 137.415 591.552 137.415 608.448C137.415 625.472 150.983 637.76 168.391 637.76C177.863 637.76 186.311 634.048 191.943 628.032H217.543V642.88H234.439V573.12H217.543ZM273.597 600.384H300.605V586.688H256.957V664.512H265.149C280.253 664.512 292.797 664 307.133 661.312L305.853 647.616C294.589 649.664 284.605 650.304 273.597 650.56V600.384ZM338.749 572.992V618.432H328.125V575.296H312.381V685.504H328.125V632H338.749V691.008H354.749V572.992H338.749ZM470.07 617.92C457.27 620.608 445.494 621.376 424.118 621.504V594.496H460.214V581.056H407.35V635.072H417.334C443.702 635.072 457.27 634.432 471.734 631.36L470.07 617.92ZM457.398 677.568C442.55 677.568 434.23 674.24 434.23 667.072C434.23 660.032 442.55 656.704 457.398 656.704C472.374 656.704 480.694 660.032 480.694 667.072C480.694 674.24 472.374 677.568 457.398 677.568ZM457.398 643.264C433.206 643.264 417.59 652.224 417.59 667.072C417.59 682.176 433.206 691.136 457.398 691.136C481.846 691.136 497.334 682.176 497.334 667.072C497.334 652.224 481.846 643.264 457.398 643.264ZM496.31 601.024V572.992H479.286V641.216H496.31V614.72H511.67V601.024H496.31ZM591.788 627.392C572.716 622.528 564.268 610.368 564.268 598.08H587.564V584.768H564.268V572.736H547.372V584.768H524.332V598.08H547.372C547.372 611.136 539.052 624.192 520.108 629.44L527.916 642.496C541.612 638.656 550.956 630.592 556.076 620.224C561.452 629.696 570.796 636.992 584.108 640.448L591.788 627.392ZM557.74 660.544H603.052V676.416H557.74V660.544ZM541.1 689.6H619.564V647.232H541.1V689.6ZM602.668 573.12V603.968H584.876V617.536H602.668V642.112H619.564V573.12H602.668ZM714.789 628.416H692.389V611.776H714.789V628.416ZM731.301 618.048H752.293V660.16H769.189V573.248H752.293V604.48H731.301V581.056H714.789V598.848H692.389V580.928H675.621V641.856H731.301V618.048ZM708.261 675.52V651.712H691.365V688.96H771.749V675.52H708.261ZM890.267 587.84H849.947V574.272H833.051V587.84H792.987V601.28H890.267V587.84ZM818.843 629.312C818.843 622.656 826.779 619.328 841.371 619.328C856.219 619.328 864.155 622.656 864.155 629.312C864.155 636.096 856.219 639.168 841.371 639.168C826.779 639.168 818.843 636.096 818.843 629.312ZM849.947 665.536V651.968C869.531 650.048 881.435 641.984 881.435 629.312C881.435 614.848 866.075 606.272 841.371 606.272C816.923 606.272 801.435 614.848 801.435 629.312C801.435 641.984 813.467 650.176 833.051 651.968V665.536H788.379V679.232H895.259V665.536H849.947Z" fill="white"/>
<path d="M334.6 253.288V233.56H374.776V218.296H297.88V203.464H371.752V159.256H278.872V174.376H353.032V188.632H279.016V233.56H315.592V253.288H265.192V268.84H385.288V253.288H334.6ZM509.549 207.496H480.749V176.824H508.541V161.704H461.885V222.616H509.549V207.496ZM454.397 204.184C444.893 206.056 436.253 206.776 425.885 206.92V176.824H453.389V161.704H406.877V222.616H415.229C431.213 222.616 442.589 222.328 455.693 219.736L454.397 204.184ZM466.781 252.712V228.232H447.773V252.712H397.661V267.976H517.757V252.712H466.781ZM551.57 210.812H562.398C567.555 210.812 571.375 209.523 573.859 206.945C576.344 204.367 577.586 200.945 577.586 196.68C577.586 192.555 576.344 189.344 573.859 187.047C571.422 184.75 568.047 183.602 563.734 183.602C559.844 183.602 556.586 184.68 553.961 186.836C551.336 188.945 550.023 191.711 550.023 195.133H529.703C529.703 189.789 531.133 185.008 533.992 180.789C536.898 176.523 540.93 173.195 546.086 170.805C551.289 168.414 557.008 167.219 563.242 167.219C574.07 167.219 582.555 169.82 588.695 175.023C594.836 180.18 597.906 187.305 597.906 196.398C597.906 201.086 596.477 205.398 593.617 209.336C590.758 213.273 587.008 216.297 582.367 218.406C588.133 220.469 592.422 223.562 595.234 227.688C598.094 231.812 599.523 236.688 599.523 242.312C599.523 251.406 596.195 258.695 589.539 264.18C582.93 269.664 574.164 272.406 563.242 272.406C553.023 272.406 544.656 269.711 538.141 264.32C531.672 258.93 528.438 251.805 528.438 242.945H548.758C548.758 246.789 550.188 249.93 553.047 252.367C555.953 254.805 559.516 256.023 563.734 256.023C568.562 256.023 572.336 254.758 575.055 252.227C577.82 249.648 579.203 246.25 579.203 242.031C579.203 231.812 573.578 226.703 562.328 226.703H551.57V210.812ZM668.711 167.57V184.305H666.742C657.555 184.445 650.148 186.836 644.523 191.477C638.945 196.117 635.594 202.562 634.469 210.812C639.906 205.281 646.773 202.516 655.07 202.516C663.977 202.516 671.055 205.703 676.305 212.078C681.555 218.453 684.18 226.844 684.18 237.25C684.18 243.906 682.727 249.93 679.82 255.32C676.961 260.711 672.883 264.906 667.586 267.906C662.336 270.906 656.383 272.406 649.727 272.406C638.945 272.406 630.227 268.656 623.57 261.156C616.961 253.656 613.656 243.648 613.656 231.133V223.82C613.656 212.711 615.742 202.914 619.914 194.43C624.133 185.898 630.156 179.312 637.984 174.672C645.859 169.984 654.977 167.617 665.336 167.57H668.711ZM648.883 218.828C645.602 218.828 642.625 219.695 639.953 221.43C637.281 223.117 635.312 225.367 634.047 228.18V234.367C634.047 241.164 635.383 246.484 638.055 250.328C640.727 254.125 644.477 256.023 649.305 256.023C653.664 256.023 657.18 254.312 659.852 250.891C662.57 247.422 663.93 242.945 663.93 237.461C663.93 231.883 662.57 227.383 659.852 223.961C657.133 220.539 653.477 218.828 648.883 218.828ZM699.297 220.656L705.203 168.625H762.578V185.57H721.867L719.336 207.578C724.164 205 729.297 203.711 734.734 203.711C744.484 203.711 752.125 206.734 757.656 212.781C763.188 218.828 765.953 227.289 765.953 238.164C765.953 244.773 764.547 250.703 761.734 255.953C758.969 261.156 754.984 265.211 749.781 268.117C744.578 270.977 738.438 272.406 731.359 272.406C725.172 272.406 719.43 271.164 714.133 268.68C708.836 266.148 704.641 262.609 701.547 258.062C698.5 253.516 696.883 248.336 696.695 242.523H716.805C717.227 246.789 718.703 250.117 721.234 252.508C723.812 254.852 727.164 256.023 731.289 256.023C735.883 256.023 739.422 254.383 741.906 251.102C744.391 247.773 745.633 243.086 745.633 237.039C745.633 231.227 744.203 226.773 741.344 223.68C738.484 220.586 734.43 219.039 729.18 219.039C724.352 219.039 720.438 220.305 717.438 222.836L715.469 224.664L699.297 220.656Z" fill="white"/>
</svg>
