<svg width="1024" height="768" viewBox="0 0 1024 768" fill="none" 
    xmlns="http://www.w3.org/2000/svg">
    <rect width="1024" height="768" fill="#B05F31"/>
    <rect y="362" width="1024" height="406" fill="#0E24ED"/>
    <path d="M248.594 508.625L274.891 582.875L301.047 508.625H328.75V611H307.586V583.016L309.695 534.711L282.062 611H267.578L240.016 534.781L242.125 583.016V611H221.031V508.625H248.594ZM380.5 554.75L401.805 508.625H424.867L391.258 573.875V611H369.812V573.875L336.203 508.625H359.336L380.5 554.75ZM470.078 611V508.625H501.578C510.578 508.625 518.617 510.664 525.695 514.742C532.82 518.773 538.375 524.539 542.359 532.039C546.344 539.492 548.336 547.977 548.336 557.492V562.203C548.336 571.719 546.367 580.18 542.43 587.586C538.539 594.992 533.031 600.734 525.906 604.812C518.781 608.891 510.742 610.953 501.789 611H470.078ZM491.172 525.711V594.055H501.367C509.617 594.055 515.922 591.359 520.281 585.969C524.641 580.578 526.867 572.867 526.961 562.836V557.422C526.961 547.016 524.805 539.141 520.492 533.797C516.18 528.406 509.875 525.711 501.578 525.711H491.172ZM619.984 589.906H583L575.969 611H553.539L591.648 508.625H611.195L649.516 611H627.086L619.984 589.906ZM588.695 572.82H614.289L601.422 534.5L588.695 572.82ZM727.703 525.711H696.344V611H675.25V525.711H644.312V508.625H727.703V525.711ZM789.156 589.906H752.172L745.141 611H722.711L760.82 508.625H780.367L818.688 611H796.258L789.156 589.906ZM757.867 572.82H783.461L770.594 534.5L757.867 572.82Z" fill="white"/>
    <path d="M300.484 244.141C300.484 240.156 299.078 237.109 296.266 235C293.453 232.844 288.391 230.594 281.078 228.25C273.766 225.859 267.977 223.516 263.711 221.219C252.086 214.938 246.273 206.477 246.273 195.836C246.273 190.305 247.82 185.383 250.914 181.07C254.055 176.711 258.531 173.312 264.344 170.875C270.203 168.438 276.766 167.219 284.031 167.219C291.344 167.219 297.859 168.555 303.578 171.227C309.297 173.852 313.727 177.578 316.867 182.406C320.055 187.234 321.648 192.719 321.648 198.859H300.555C300.555 194.172 299.078 190.539 296.125 187.961C293.172 185.336 289.023 184.023 283.68 184.023C278.523 184.023 274.516 185.125 271.656 187.328C268.797 189.484 267.367 192.344 267.367 195.906C267.367 199.234 269.031 202.023 272.359 204.273C275.734 206.523 280.68 208.633 287.195 210.602C299.195 214.211 307.938 218.688 313.422 224.031C318.906 229.375 321.648 236.031 321.648 244C321.648 252.859 318.297 259.82 311.594 264.883C304.891 269.898 295.867 272.406 284.523 272.406C276.648 272.406 269.477 270.977 263.008 268.117C256.539 265.211 251.594 261.25 248.172 256.234C244.797 251.219 243.109 245.406 243.109 238.797H264.273C264.273 250.094 271.023 255.742 284.523 255.742C289.539 255.742 293.453 254.734 296.266 252.719C299.078 250.656 300.484 247.797 300.484 244.141ZM397.586 226.633H357.086V254.055H404.617V271H335.992V168.625H404.477V185.711H357.086V210.109H397.586V226.633ZM474.789 249.906H437.805L430.773 271H408.344L446.453 168.625H466L504.32 271H481.891L474.789 249.906ZM443.5 232.82H469.094L456.227 194.5L443.5 232.82ZM551.781 233.523H534.977V271H513.883V168.625H551.922C564.016 168.625 573.344 171.32 579.906 176.711C586.469 182.102 589.75 189.719 589.75 199.562C589.75 206.547 588.227 212.383 585.18 217.07C582.18 221.711 577.609 225.414 571.469 228.18L593.617 270.016V271H570.977L551.781 233.523ZM534.977 216.438H551.992C557.289 216.438 561.391 215.102 564.297 212.43C567.203 209.711 568.656 205.984 568.656 201.25C568.656 196.422 567.273 192.625 564.508 189.859C561.789 187.094 557.594 185.711 551.922 185.711H534.977V216.438ZM686.219 236.898C685.422 247.914 681.344 256.586 673.984 262.914C666.672 269.242 657.016 272.406 645.016 272.406C631.891 272.406 621.555 268 614.008 259.188C606.508 250.328 602.758 238.188 602.758 222.766V216.508C602.758 206.664 604.492 197.992 607.961 190.492C611.43 182.992 616.375 177.25 622.797 173.266C629.266 169.234 636.766 167.219 645.297 167.219C657.109 167.219 666.625 170.383 673.844 176.711C681.062 183.039 685.234 191.922 686.359 203.359H665.266C664.75 196.75 662.898 191.969 659.711 189.016C656.57 186.016 651.766 184.516 645.297 184.516C638.266 184.516 632.992 187.047 629.477 192.109C626.008 197.125 624.227 204.93 624.133 215.523V223.258C624.133 234.32 625.797 242.406 629.125 247.516C632.5 252.625 637.797 255.18 645.016 255.18C651.531 255.18 656.383 253.703 659.57 250.75C662.805 247.75 664.656 243.133 665.125 236.898H686.219ZM783.391 271H762.297V227.125H721.164V271H700.07V168.625H721.164V210.109H762.297V168.625H783.391V271Z" fill="white"/>
</svg>
